<?xml version="1.0" encoding="UTF-8"?>
<!DOCTYPE svg PUBLIC "-//W3C//DTD SVG 1.1//EN" "http://www.w3.org/Graphics/SVG/1.1/DTD/svg11.dtd">
<svg xmlns="http://www.w3.org/2000/svg" version="1.1" width="24px" height="24px" style="shape-rendering:geometricPrecision; text-rendering:geometricPrecision; image-rendering:optimizeQuality; fill-rule:evenodd; clip-rule:evenodd" xmlns:xlink="http://www.w3.org/1999/xlink">
<g><path style="opacity:0.569" fill="#21c5e1" d="M -0.5,0.5 C 2.83333,0.5 6.16667,0.5 9.5,0.5C 9.5,0.833333 9.5,1.16667 9.5,1.5C 6.8127,1.33591 4.14603,1.50258 1.5,2C 0.556209,4.71914 0.222875,7.55247 0.5,10.5C 0.166667,10.5 -0.166667,10.5 -0.5,10.5C -0.5,7.16667 -0.5,3.83333 -0.5,0.5 Z"/></g>
<g><path style="opacity:0.569" fill="#8e61f2" d="M 9.5,1.5 C 9.5,1.16667 9.5,0.833333 9.5,0.5C 14.1667,0.5 18.8333,0.5 23.5,0.5C 23.5,1.5 23.5,2.5 23.5,3.5C 23.1667,3.5 22.8333,3.5 22.5,3.5C 22.3893,2.88258 22.056,2.38258 21.5,2C 17.5138,1.50115 13.5138,1.33449 9.5,1.5 Z"/></g>
<g><path style="opacity:0.553" fill="#48b4ed" d="M 9.5,4.5 C 8.83333,4.5 8.5,4.83333 8.5,5.5C 8.16667,5.5 7.83333,5.5 7.5,5.5C 7.71073,3.57591 8.3774,3.24258 9.5,4.5 Z"/></g>
<g><path style="opacity:0.529" fill="#7773ed" d="M 16.5,5.5 C 16.1667,5.5 15.8333,5.5 15.5,5.5C 15.1583,6.33825 14.4916,6.67158 13.5,6.5C 13.5,5.5 13.5,4.5 13.5,3.5C 15.1788,3.28519 16.1788,3.95186 16.5,5.5 Z"/></g>
<g><path style="opacity:0.529" fill="#8c61f1" d="M 19.5,3.5 C 19.5,3.83333 19.5,4.16667 19.5,4.5C 18.8333,4.5 18.5,4.83333 18.5,5.5C 18.1667,5.5 17.8333,5.5 17.5,5.5C 17.5,4.16667 18.1667,3.5 19.5,3.5 Z"/></g>
<g><path style="opacity:0.337" fill="#9956f2" d="M 19.5,3.5 C 20.4916,3.32842 21.1583,3.66175 21.5,4.5C 20.8333,4.83333 20.1667,5.16667 19.5,5.5C 19.5,5.16667 19.5,4.83333 19.5,4.5C 19.5,4.16667 19.5,3.83333 19.5,3.5 Z"/></g>
<g><path style="opacity:0.576" fill="#60a1f3" d="M 9.5,4.5 C 10.5,4.83333 11.1667,5.5 11.5,6.5C 10.8333,6.5 10.5,6.83333 10.5,7.5C 9.59603,6.79105 9.26269,5.79105 9.5,4.5 Z"/></g>
<g><path style="opacity:0.2" fill="#a54df4" d="M 21.5,4.5 C 21.5,5.16667 21.5,5.83333 21.5,6.5C 20.8333,6.5 20.1667,6.5 19.5,6.5C 19.5,6.16667 19.5,5.83333 19.5,5.5C 20.1667,5.16667 20.8333,4.83333 21.5,4.5 Z"/></g>
<g><path style="opacity:0.302" fill="#3ba5e2" d="M 4.5,7.5 C 3.83333,7.83333 3.16667,8.16667 2.5,8.5C 1.95691,8.44001 1.62358,8.10667 1.5,7.5C 2.75978,6.6184 3.92644,5.6184 5,4.5C 5.46958,5.57683 5.30292,6.57683 4.5,7.5 Z"/></g>
<g><path style="opacity:0.239" fill="#5590ed" d="M 7.5,5.5 C 7.83333,5.5 8.16667,5.5 8.5,5.5C 8.73731,6.79105 8.40397,7.79105 7.5,8.5C 7.16667,8.5 6.83333,8.5 6.5,8.5C 6.26269,7.20895 6.59603,6.20895 7.5,5.5 Z"/></g>
<g><path style="opacity:0.404" fill="#7377ed" d="M 11.5,6.5 C 12.8333,7.16667 12.8333,7.83333 11.5,8.5C 11.1667,8.5 10.8333,8.5 10.5,8.5C 10.5,8.16667 10.5,7.83333 10.5,7.5C 10.5,6.83333 10.8333,6.5 11.5,6.5 Z"/></g>
<g><path style="opacity:0.267" fill="#8963f0" d="M 15.5,5.5 C 15.8333,5.5 16.1667,5.5 16.5,5.5C 16.5,6.16667 16.5,6.83333 16.5,7.5C 15.5,7.83333 14.8333,8.5 14.5,9.5C 14.1667,9.5 13.8333,9.5 13.5,9.5C 13.5,8.5 13.5,7.5 13.5,6.5C 14.4916,6.67158 15.1583,6.33825 15.5,5.5 Z"/></g>
<g><path style="opacity:0.149" fill="#9857f2" d="M 17.5,5.5 C 17.8333,5.5 18.1667,5.5 18.5,5.5C 18.8333,5.5 19.1667,5.5 19.5,5.5C 19.5,5.83333 19.5,6.16667 19.5,6.5C 18.8333,6.5 18.5,6.83333 18.5,7.5C 18.1667,7.5 17.8333,7.5 17.5,7.5C 17.5,6.83333 17.5,6.16667 17.5,5.5 Z"/></g>
<g><path style="opacity:0.133" fill="#9e52f0" d="M 16.5,7.5 C 16.8333,7.5 17.1667,7.5 17.5,7.5C 17.8333,7.5 18.1667,7.5 18.5,7.5C 18.5,7.83333 18.5,8.16667 18.5,8.5C 17.8333,8.5 17.5,8.83333 17.5,9.5C 17.1667,9.5 16.8333,9.5 16.5,9.5C 16.5,8.83333 16.5,8.16667 16.5,7.5 Z"/></g>
<g><path style="opacity:0.133" fill="#a74bf7" d="M 19.5,6.5 C 20.1667,6.5 20.8333,6.5 21.5,6.5C 21.5,6.83333 21.5,7.16667 21.5,7.5C 21.1667,7.5 20.8333,7.5 20.5,7.5C 19.8333,7.83333 19.1667,8.16667 18.5,8.5C 18.5,8.16667 18.5,7.83333 18.5,7.5C 18.5,6.83333 18.8333,6.5 19.5,6.5 Z"/></g>
<g><path style="opacity:0.475" fill="#5a93eb" d="M 4.5,7.5 C 4.83333,8.16667 5.16667,8.83333 5.5,9.5C 5.5,9.83333 5.5,10.1667 5.5,10.5C 4.29049,10.0679 3.29049,9.40128 2.5,8.5C 3.16667,8.16667 3.83333,7.83333 4.5,7.5 Z"/></g>
<g><path style="opacity:0.329" fill="#7973ee" d="M 10.5,8.5 C 10.8333,8.5 11.1667,8.5 11.5,8.5C 9.82961,11.105 9.49628,11.105 10.5,8.5 Z"/></g>
<g><path style="opacity:0.4" fill="#9857f1" d="M 16.5,7.5 C 16.5,8.16667 16.5,8.83333 16.5,9.5C 16.1667,9.5 15.8333,9.5 15.5,9.5C 15.1667,9.5 14.8333,9.5 14.5,9.5C 14.8333,8.5 15.5,7.83333 16.5,7.5 Z"/></g>
<g><path style="opacity:0.4" fill="#af42f5" d="M 20.5,7.5 C 19.8333,8.83333 19.1667,10.1667 18.5,11.5C 17.8333,11.5 17.1667,11.5 16.5,11.5C 16.8333,10.8333 17.1667,10.1667 17.5,9.5C 17.5,8.83333 17.8333,8.5 18.5,8.5C 19.1667,8.16667 19.8333,7.83333 20.5,7.5 Z"/></g>
<g><path style="opacity:0.49" fill="#6582eb" d="M 6.5,8.5 C 6.83333,8.5 7.16667,8.5 7.5,8.5C 7.71901,9.67504 7.38568,10.675 6.5,11.5C 5.89333,11.3764 5.55999,11.0431 5.5,10.5C 5.5,10.1667 5.5,9.83333 5.5,9.5C 6.16667,9.5 6.5,9.16667 6.5,8.5 Z"/></g>
<g><path style="opacity:0.529" fill="#be37f8" d="M 20.5,7.5 C 20.8333,7.5 21.1667,7.5 21.5,7.5C 21.5,8.83333 21.5,10.1667 21.5,11.5C 20.5,11.5 19.5,11.5 18.5,11.5C 19.1667,10.1667 19.8333,8.83333 20.5,7.5 Z"/></g>
<g><path style="opacity:0.482" fill="#9956f1" d="M 13.5,9.5 C 13.8333,9.5 14.1667,9.5 14.5,9.5C 14.8333,9.5 15.1667,9.5 15.5,9.5C 15.1667,10.1667 14.8333,10.8333 14.5,11.5C 13.6618,11.1583 13.3284,10.4916 13.5,9.5 Z"/></g>
<g><path style="opacity:0.463" fill="#a54bf3" d="M 15.5,9.5 C 15.8333,9.5 16.1667,9.5 16.5,9.5C 16.8333,9.5 17.1667,9.5 17.5,9.5C 17.1667,10.1667 16.8333,10.8333 16.5,11.5C 15.8333,11.5 15.1667,11.5 14.5,11.5C 14.8333,10.8333 15.1667,10.1667 15.5,9.5 Z"/></g>
<g><path style="opacity:0.533" fill="#5f8aea" d="M -0.5,10.5 C -0.166667,10.5 0.166667,10.5 0.5,10.5C 0.5,11.5 0.5,12.5 0.5,13.5C 1.83333,13.5 3.16667,13.5 4.5,13.5C 4.5,13.8333 4.5,14.1667 4.5,14.5C 3.16667,14.5 1.83333,14.5 0.5,14.5C 0.166667,14.5 -0.166667,14.5 -0.5,14.5C -0.5,13.1667 -0.5,11.8333 -0.5,10.5 Z"/></g>
<g><path style="opacity:0.643" fill="#d12cf9" d="M 22.5,3.5 C 22.8333,3.5 23.1667,3.5 23.5,3.5C 23.5,7.16667 23.5,10.8333 23.5,14.5C 23.1667,14.5 22.8333,14.5 22.5,14.5C 16.5,14.5 10.5,14.5 4.5,14.5C 4.5,14.1667 4.5,13.8333 4.5,13.5C 10.5,13.5 16.5,13.5 22.5,13.5C 22.5,10.1667 22.5,6.83333 22.5,3.5 Z"/></g>
<g><path style="opacity:0.573" fill="#6681eb" d="M -0.5,14.5 C -0.166667,14.5 0.166667,14.5 0.5,14.5C 0.32842,15.4916 0.661754,16.1583 1.5,16.5C 1.5,16.8333 1.5,17.1667 1.5,17.5C 0.833333,17.5 0.166667,17.5 -0.5,17.5C -0.5,16.5 -0.5,15.5 -0.5,14.5 Z"/></g>
<g><path style="opacity:0.533" fill="#a150f3" d="M 1.5,17.5 C 1.5,17.1667 1.5,16.8333 1.5,16.5C 4.83333,16.5 8.16667,16.5 11.5,16.5C 11.5,16.8333 11.5,17.1667 11.5,17.5C 10.8333,17.5 10.5,17.8333 10.5,18.5C 10.1667,18.5 9.83333,18.5 9.5,18.5C 7.0521,17.5269 4.38544,17.1936 1.5,17.5 Z"/></g>
<g><path style="opacity:0.557" fill="#c531f8" d="M 11.5,17.5 C 11.5,17.1667 11.5,16.8333 11.5,16.5C 13.8333,16.5 16.1667,16.5 18.5,16.5C 18.5,16.8333 18.5,17.1667 18.5,17.5C 16.5853,17.2155 14.9187,17.5489 13.5,18.5C 13.1667,18.5 12.8333,18.5 12.5,18.5C 12.5,17.8333 12.1667,17.5 11.5,17.5 Z"/></g>
<g><path style="opacity:0.573" fill="#f109fc" d="M 22.5,14.5 C 22.8333,14.5 23.1667,14.5 23.5,14.5C 23.5,15.5 23.5,16.5 23.5,17.5C 21.8333,17.5 20.1667,17.5 18.5,17.5C 18.5,17.1667 18.5,16.8333 18.5,16.5C 20.4832,16.8432 21.8166,16.1765 22.5,14.5 Z"/></g>
<g><path style="opacity:0.306" fill="#a64bf3" d="M 8.5,18.5 C 8.16667,19.1667 7.83333,19.8333 7.5,20.5C 6.83333,20.5 6.5,20.8333 6.5,21.5C 5.83333,21.5 5.5,21.8333 5.5,22.5C 4.66786,20.2752 5.66786,18.9419 8.5,18.5 Z"/></g>
<g><path style="opacity:0.2" fill="#b23ef5" d="M 8.5,18.5 C 8.83333,18.5 9.16667,18.5 9.5,18.5C 9.83333,18.5 10.1667,18.5 10.5,18.5C 10.1667,19.1667 9.83333,19.8333 9.5,20.5C 8.83333,20.5 8.16667,20.5 7.5,20.5C 7.83333,19.8333 8.16667,19.1667 8.5,18.5 Z"/></g>
<g><path style="opacity:0.2" fill="#c134f5" d="M 10.5,18.5 C 11.1667,18.5 11.8333,18.5 12.5,18.5C 12.1667,19.1667 11.8333,19.8333 11.5,20.5C 10.8333,20.5 10.1667,20.5 9.5,20.5C 9.83333,19.8333 10.1667,19.1667 10.5,18.5 Z"/></g>
<g><path style="opacity:0.2" fill="#cb29f9" d="M 12.5,18.5 C 12.8333,18.5 13.1667,18.5 13.5,18.5C 13.8333,18.5 14.1667,18.5 14.5,18.5C 14.1667,19.1667 13.8333,19.8333 13.5,20.5C 12.8333,20.5 12.1667,20.5 11.5,20.5C 11.8333,19.8333 12.1667,19.1667 12.5,18.5 Z"/></g>
<g><path style="opacity:0.227" fill="#d81efa" d="M 14.5,18.5 C 15.4916,18.3284 16.1583,18.6618 16.5,19.5C 15.8333,19.5 15.5,19.8333 15.5,20.5C 14.8333,20.5 14.1667,20.5 13.5,20.5C 13.8333,19.8333 14.1667,19.1667 14.5,18.5 Z"/></g>
<g><path style="opacity:0.373" fill="#ea10fc" d="M 15.5,20.5 C 15.5,19.8333 15.8333,19.5 16.5,19.5C 17.1667,19.5 17.5,19.8333 17.5,20.5C 17.5,21.1667 17.1667,21.5 16.5,21.5C 16.5,20.8333 16.1667,20.5 15.5,20.5 Z"/></g>
<g><path style="opacity:0.557" fill="#e61bfb" d="M 17.5,20.5 C 18.0431,20.56 18.3764,20.8933 18.5,21.5C 14.2172,22.4922 9.88387,22.8256 5.5,22.5C 5.5,21.8333 5.83333,21.5 6.5,21.5C 9.83333,21.5 13.1667,21.5 16.5,21.5C 17.1667,21.5 17.5,21.1667 17.5,20.5 Z"/></g>
</svg>
